<svg xmlns="http://www.w3.org/2000/svg" viewBox="0 0 19 19" height="19" width="19"><title>boston-t.svg</title><path fill="#b3b3b3" opacity="0.75" d="M9.5,19A9.5,9.5,0,1,1,19,9.5,9.51,9.51,0,0,1,9.5,19Z"></path><path fill="#000000" d="M1,9.5a8.5,8.5 0 1,0 17,0a8.5,8.5 0 1,0-17,0"></path><path fill="#b3b3b3" d="M2,9.5a7.5,7.5 0 1,0 15,0a7.5,7.5 0 1,0-15,0"></path><path fill="#000000" d="M14,6L5 6 5 8 8.5 8 8.5 15 10.5 15 10.5 8 14 8 14 6z"></path><path fill="none" d="M0,0L19,0 19,19 0,19z"></path></svg>