<svg xmlns="http://www.w3.org/2000/svg" viewBox="0 0 28 20" height="20" width="28"><title>br-state-3.svg</title><path fill="none" d="M0,0L28,0 28,20 0,20z"></path><g><path fill="#cccccc" d="M6,17.5a.5.5,0,0,1-.45-.28l-5-10a.5.5,0,0,1,.24-.68l13-6a.5.5,0,0,1,.42,0l13,6a.5.5,0,0,1,.24.68l-5,10a.5.5,0,0,1-.45.28Z"></path><path fill="#000000" d="M14,1,27,7,22,17H6L1,7,14,1m0-1a1,1,0,0,0-.42.09l-13,6A1,1,0,0,0,.11,7.45l5,10A1,1,0,0,0,6,18H22a1,1,0,0,0,.89-.55l5-10a1,1,0,0,0-.48-1.36l-13-6A1,1,0,0,0,14,0Z"></path></g></svg>