<svg xmlns="http://www.w3.org/2000/svg" viewBox="0 0 19 19" height="19" width="19"><title>de-s-bahn.svg</title><path fill="#b3b3b3" opacity="0.75" d="M0,9.5a9.5,9.5 0 1,0 19,0a9.5,9.5 0 1,0-19,0"></path><path fill="#117332" d="M1,9.5a8.5,8.5 0 1,0 17,0a8.5,8.5 0 1,0-17,0"></path><path fill="#b3b3b3" d="M6.71,6.13c0-.52.54-1.33,2.24-1.33A6.5,6.5,0,0,1,14,6.71V5.07A7,7,0,0,0,8.94,3.35c-2,0-4.47,1.27-4.47,3.39,0,4.31,7.26,2.76,7.26,5.55,0,1.14-1.12,1.67-2.81,1.67A5.61,5.61,0,0,1,4.5,11.18v2.24c0.56,1.14,2.21,2.23,5,2.23s5-1.69,5-3.87C14.53,7.3,6.71,8.92,6.71,6.13Z"></path><path fill="none" d="M0,0L19,0 19,19 0,19z"></path></svg>