<svg xmlns="http://www.w3.org/2000/svg" viewBox="0 0 17 17" height="17" width="17"><title>de-u-bahn.svg</title><path fill="#b3b3b3" opacity="0.75" d="M2,0L15,0A2,2,0,0,1,17,2L17,15A2,2,0,0,1,15,17L2,17A2,2,0,0,1,0,15L0,2A2,2,0,0,1,2,0"></path><path fill="#364699" d="M2,1L15,1A1,1,0,0,1,16,2L16,15A1,1,0,0,1,15,16L2,16A1,1,0,0,1,1,15L1,2A1,1,0,0,1,2,1"></path><path fill="#b3b3b3" d="M10.5,9a2.24,2.24,0,0,1-2,2,2.24,2.24,0,0,1-2-2V3.5H4v5c0,2.76,1.74,5,4.5,5s4.5-2.26,4.5-5v-5H10.5V9Z"></path><path fill="none" d="M0,0L17,0 17,17 0,17z"></path></svg>