<svg xmlns="http://www.w3.org/2000/svg" viewBox="0 0 20 14" height="14" width="20"><title>e-road-2.svg</title><g><path fill="#095924" d="M2.9699999999999998,0.59L16.97,0.59A2.5,2.5,0,0,1,19.47,3.09L19.47,11.09A2.5,2.5,0,0,1,16.97,13.59L2.9699999999999998,13.59A2.5,2.5,0,0,1,0.47,11.09L0.47,3.09A2.5,2.5,0,0,1,2.9699999999999998,0.59"></path><path fill="#a6a6a6" d="M17,1.09a2,2,0,0,1,2,2v8a2,2,0,0,1-2,2H3a2,2,0,0,1-2-2v-8a2,2,0,0,1,2-2H17m0-1H3a3,3,0,0,0-3,3v8a3,3,0,0,0,3,3H17a3,3,0,0,0,3-3v-8a3,3,0,0,0-3-3Z"></path></g></svg>