<svg xmlns="http://www.w3.org/2000/svg" viewBox="0 0 93 16" height="16" width="93"><title>gb-national-rail.london-dlr.london-overground.london-tfl-rail.london-underground.svg</title><path fill="#b3b3b3" opacity="0.75" d="M90.6,5.5a8,8,0,0,0-15.19,0H71.6a8,8,0,0,0-15.19,0H52.6a8,8,0,0,0-15.19,0H33.6a8,8,0,0,0-15.19,0H17V3a2,2,0,0,0-2-2H2A2,2,0,0,0,0,3V13a2,2,0,0,0,2,2H15a2,2,0,0,0,2-2V10.5h1.4a8,8,0,0,0,15.19,0H37.4a8,8,0,0,0,15.19,0H56.4a8,8,0,0,0,15.19,0H75.4a8,8,0,0,0,15.19,0H93v-5H90.6Z"></path><path fill="#b3b3b3" d="M22,8a4,4 0 1,0 8,0a4,4 0 1,0-8,0"></path><path fill="#227373" d="M26,1a7,7,0,1,0,7,7A7,7,0,0,0,26,1Zm0,11a4,4,0,1,1,4-4A4,4,0,0,1,26,12Z"></path><path fill="#364699" d="M17,6.5L35,6.5 35,9.5 17,9.5z"></path><path fill="#bf3030" d="M2,2L15,2A1,1,0,0,1,16,3L16,13A1,1,0,0,1,15,14L2,14A1,1,0,0,1,1,13L1,3A1,1,0,0,1,2,2"></path><path fill="#b3b3b3" d="M15,7L15 6 12 6 7.26 4 5 4 9.67 6 2 6 2 7 9.67 7 5 9 2 9 2 10 5 10 9.67 12 12 12 7.26 10 15 10 15 9 7.26 9 12 7 15 7z"></path><path fill="#b3b3b3" d="M41,8a4,4 0 1,0 8,0a4,4 0 1,0-8,0"></path><path fill="#bf6b2a" d="M45,1a7,7,0,1,0,7,7A7,7,0,0,0,45,1Zm0,11a4,4,0,1,1,4-4A4,4,0,0,1,45,12Z"></path><path fill="#364699" d="M36,6.5L54,6.5 54,9.5 36,9.5z"></path><path fill="#b3b3b3" d="M60,8a4,4 0 1,0 8,0a4,4 0 1,0-8,0"></path><path fill="#364699" d="M64,1a7,7,0,1,0,7,7A7,7,0,0,0,64,1Zm0,11a4,4,0,1,1,4-4A4,4,0,0,1,64,12Z"></path><path fill="#364699" d="M55,6.5L73,6.5 73,9.5 55,9.5z"></path><path fill="#b3b3b3" d="M79,8a4,4 0 1,0 8,0a4,4 0 1,0-8,0"></path><path fill="#bf3030" d="M83,1a7,7,0,1,0,7,7A7,7,0,0,0,83,1Zm0,11a4,4,0,1,1,4-4A4,4,0,0,1,83,12Z"></path><path fill="#364699" d="M74,6.5L92,6.5 92,9.5 74,9.5z"></path></svg>