<svg xmlns="http://www.w3.org/2000/svg" viewBox="0 0 36 16" height="16" width="36"><title>gb-national-rail.london-tfl-rail.svg</title><path fill="#b3b3b3" opacity="0.75" d="M33.6,5.5a8,8,0,0,0-15.19,0H17V3a2,2,0,0,0-2-2H2A2,2,0,0,0,0,3V13a2,2,0,0,0,2,2H15a2,2,0,0,0,2-2V10.5h1.4a8,8,0,0,0,15.19,0H36v-5H33.6Z"></path><path fill="#b3b3b3" d="M22,8a4,4 0 1,0 8,0a4,4 0 1,0-8,0"></path><path fill="#364699" d="M26,1a7,7,0,1,0,7,7A7,7,0,0,0,26,1Zm0,11a4,4,0,1,1,4-4A4,4,0,0,1,26,12Z"></path><path fill="#364699" d="M17,6.5L35,6.5 35,9.5 17,9.5z"></path><path fill="#bf3030" d="M2,2L15,2A1,1,0,0,1,16,3L16,13A1,1,0,0,1,15,14L2,14A1,1,0,0,1,1,13L1,3A1,1,0,0,1,2,2"></path><path fill="#b3b3b3" d="M15,7L15 6 12 6 7.26 4 5 4 9.67 6 2 6 2 7 9.67 7 5 9 2 9 2 10 5 10 9.67 12 12 12 7.26 10 15 10 15 9 7.26 9 12 7 15 7z"></path></svg>