<svg xmlns="http://www.w3.org/2000/svg" viewBox="0 0 17 14" height="14" width="17"><title>gb-national-rail.svg</title><path fill="#b3b3b3" opacity="0.75" d="M2,0L15,0A2,2,0,0,1,17,2L17,12A2,2,0,0,1,15,14L2,14A2,2,0,0,1,0,12L0,2A2,2,0,0,1,2,0"></path><path fill="#bf3030" d="M2,1L15,1A1,1,0,0,1,16,2L16,12A1,1,0,0,1,15,13L2,13A1,1,0,0,1,1,12L1,2A1,1,0,0,1,2,1"></path><path fill="#b3b3b3" d="M15,6L15 5 12 5 7.26 3 5 3 9.67 5 2 5 2 6 9.67 6 5 8 2 8 2 9 5 9 9.67 11 12 11 7.26 9 15 9 15 8 7.26 8 12 6 15 6z"></path></svg>