<svg xmlns="http://www.w3.org/2000/svg" viewBox="0 0 32 20" height="20" width="32"><title>hu-main-4.svg</title><path fill="none" d="M0,0L32,0 32,20 0,20z"></path><g><path fill="#095924" d="M16,19.5h-.1c-.47-.09-11.44-2.28-13.11-3A3.43,3.43,0,0,1,.5,13V3A.5.5,0,0,1,1,2.5H31a.5.5,0,0,1,.5.5V13a3.43,3.43,0,0,1-2.29,3.46c-1.67.76-12.64,2.94-13.11,3Z"></path><path fill="#a6a6a6" d="M31,3V13a3,3,0,0,1-2,3c-1.63.74-13,3-13,3S4.63,16.74,3,16a3,3,0,0,1-2-3V3H31m0-1H1A1,1,0,0,0,0,3V13a4,4,0,0,0,2.59,3.91c1.69.77,12,2.84,13.22,3.07L16,20l.19,0c1.18-.23,11.53-2.3,13.22-3.07A4,4,0,0,0,32,13V3a1,1,0,0,0-1-1Z"></path></g></svg>