<svg xmlns="http://www.w3.org/2000/svg" viewBox="0 0 20 20" height="20" width="20"><title>hu-main-2.svg</title><path fill="none" d="M0,0L20,0 20,20 0,20z"></path><g><path fill="#095924" d="M10,19.5a.5.5,0,0,1-.19,0c-.05,0-5.39-2.27-7-3A3.43,3.43,0,0,1,.5,13V3A.5.5,0,0,1,1,2.5H19a.5.5,0,0,1,.5.5V13a3.43,3.43,0,0,1-2.29,3.46c-1.62.74-7,3-7,3A.5.5,0,0,1,10,19.5Z"></path><path fill="#a6a6a6" d="M19,3V13a3,3,0,0,1-2,3c-1.63.74-7,3-7,3s-5.37-2.26-7-3a3,3,0,0,1-2-3V3H19m0-1H1A1,1,0,0,0,0,3V13a4,4,0,0,0,2.59,3.91c1.63.74,6.81,2.92,7,3a1,1,0,0,0,.77,0c.22-.09,5.4-2.27,7-3A4,4,0,0,0,20,13V3a1,1,0,0,0-1-1Z"></path></g></svg>