<svg xmlns="http://www.w3.org/2000/svg" viewBox="0 0 38 20" height="20" width="38"><title>hu-main-5.svg</title><path fill="none" d="M0,0L38,0 38,20 0,20z"></path><g><path fill="#095924" d="M18.92,19.49c-1.48-.23-14.48-2.29-16.13-3A3.43,3.43,0,0,1,.5,13V3A.5.5,0,0,1,1,2.5H37a.5.5,0,0,1,.5.5V13a3.43,3.43,0,0,1-2.29,3.46c-1.65.75-14.65,2.81-16.13,3h-.15Z"></path><path fill="#a6a6a6" d="M37,3V13a3,3,0,0,1-2,3c-1.63.74-16,3-16,3S4.63,16.74,3,16a3,3,0,0,1-2-3V3H37m0-1H1A1,1,0,0,0,0,3V13a4,4,0,0,0,2.59,3.91c1.67.76,13.84,2.7,16.26,3.08h.31c2.42-.38,14.59-2.32,16.26-3.08A4,4,0,0,0,38,13V3a1,1,0,0,0-1-1Z"></path></g></svg>