<svg xmlns="http://www.w3.org/2000/svg" viewBox="0 0 16 22" height="22" width="16"><title>in-state-2.svg</title><path fill="none" d="M0,0L16,0 16,22 0,22z"></path><path fill="#cccccc" d="M5,18c1,0,2.43.12,3,1,.57-.88,2-1,3-1s3.4-1.07,3.75-3c.53-2.93-.75-5-.75-7,0-2.94,1-4.06,1-5L13,1a4.79,4.79,0,0,1-2.5,1A4.56,4.56,0,0,1,8,1,4.65,4.65,0,0,1,5.5,2,4.09,4.09,0,0,1,3,1L1,3C1,4,2,5,2,8c0,2-1.33,4.11-.75,7A3.94,3.94,0,0,0,5,18Z"></path><path fill="#095924" d="M10.5,2A4.56,4.56,0,0,1,8,1,4.65,4.65,0,0,1,5.5,2,4.09,4.09,0,0,1,3,1L1,3a8.06,8.06,0,0,0,.57,2H14.43A9.05,9.05,0,0,0,15,3L13,1A4.79,4.79,0,0,1,10.5,2Z"></path><path fill="#000000" d="M13,1l2,2c0,.94-1,2.06-1,5,0,2,1.28,4.07.75,7C14.4,16.93,12,18,11,18s-2.43.12-3,1c-.57-.88-2-1-3-1a3.94,3.94,0,0,1-3.75-3C.67,12.11,2,10,2,8,2,5,1,4,1,3L3,1A4.09,4.09,0,0,0,5.5,2,4.65,4.65,0,0,0,8,1a4.56,4.56,0,0,0,2.5,1A4.79,4.79,0,0,0,13,1M8,0a1,1,0,0,0-.63.23A3.73,3.73,0,0,1,5.5,1,3.14,3.14,0,0,1,3.69.28a1,1,0,0,0-1.4,0l-2,2A1,1,0,0,0,0,3,4.49,4.49,0,0,0,.37,4.57,8.84,8.84,0,0,1,1,8a9.29,9.29,0,0,1-.38,2.18,10.7,10.7,0,0,0-.35,5A5,5,0,0,0,5,19c1.58,0,2,.34,2.16.54a1,1,0,0,0,1.68,0C9,19.34,9.43,19,11,19c1.37,0,4.29-1.35,4.73-3.82a11.59,11.59,0,0,0-.37-5.05A9.45,9.45,0,0,1,15,8a9.23,9.23,0,0,1,.64-3.5A4.4,4.4,0,0,0,16,3a1,1,0,0,0-.29-.71l-2-2a1,1,0,0,0-1.37,0A3.94,3.94,0,0,1,10.5,1,3.65,3.65,0,0,1,8.65.24,1,1,0,0,0,8,0Z"></path></svg>