<svg xmlns="http://www.w3.org/2000/svg" viewBox="0 0 39 16" height="16" width="39"><title>london-dlr.london-tfl-rail.svg</title><path fill="#b3b3b3" opacity="0.75" d="M36.6,5.5a8,8,0,0,0-15.19,0H17.6A8,8,0,0,0,2.4,5.5H0v5H2.4a8,8,0,0,0,15.19,0H21.4a8,8,0,0,0,15.19,0H39v-5H36.6Z"></path><path fill="#b3b3b3" d="M6,8a4,4 0 1,0 8,0a4,4 0 1,0-8,0"></path><path fill="#227373" d="M10,1a7,7,0,1,0,7,7A7,7,0,0,0,10,1Zm0,11a4,4,0,1,1,4-4A4,4,0,0,1,10,12Z"></path><path fill="#364699" d="M1,6.5L19,6.5 19,9.5 1,9.5z"></path><path fill="#b3b3b3" d="M25,8a4,4 0 1,0 8,0a4,4 0 1,0-8,0"></path><path fill="#364699" d="M29,1a7,7,0,1,0,7,7A7,7,0,0,0,29,1Zm0,11a4,4,0,1,1,4-4A4,4,0,0,1,29,12Z"></path><path fill="#364699" d="M20,6.5L38,6.5 38,9.5 20,9.5z"></path></svg>