<svg xmlns="http://www.w3.org/2000/svg" viewBox="0 0 17 17" height="17" width="17"><title>mexico-city-metro.svg</title><path fill="#b3b3b3" d="M12.07,1H1V3H1V16H16V4.94A3.94,3.94,0,0,0,12.07,1Z"></path><path fill="#a6a3a1" opacity="0.75" d="M2,0L15,0A2,2,0,0,1,17,2L17,15A2,2,0,0,1,15,17L2,17A2,2,0,0,1,0,15L0,2A2,2,0,0,1,2,0"></path><path fill="#b3b3b3" d="M2,1L15,1A1,1,0,0,1,16,2L16,15A1,1,0,0,1,15,16L2,16A1,1,0,0,1,1,15L1,2A1,1,0,0,1,2,1"></path><path fill="none" d="M0,0L17,0 17,17 0,17z"></path><path fill="#bf6b2a" d="M2.5,2V4H11a1.84,1.84,0,0,1,2,2v9h2V6a3.68,3.68,0,0,0-4-4H2.5Z"></path><path fill="#bf6b2a" d="M2.5,5.5h1a0.88,0.88,0,0,1,1,1V15h-2V5.5h0Z"></path><path fill="#bf6b2a" d="M6,5.5H7a0.88,0.88,0,0,1,1,1V15H6V5.5H6Z"></path><path fill="#bf6b2a" d="M9.5,5.5h1a0.88,0.88,0,0,1,1,1V15h-2V5.5h0Z"></path></svg>