<svg xmlns="http://www.w3.org/2000/svg" viewBox="0 0 17 17" height="17" width="17"><title>milan-metro.svg</title><path fill="#b3b3b3" opacity="0.75" d="M2,0L15,0A2,2,0,0,1,17,2L17,15A2,2,0,0,1,15,17L2,17A2,2,0,0,1,0,15L0,2A2,2,0,0,1,2,0"></path><path fill="#bf3030" d="M2,1L15,1A1,1,0,0,1,16,2L16,15A1,1,0,0,1,15,16L2,16A1,1,0,0,1,1,15L1,2A1,1,0,0,1,2,1"></path><path fill="#b3b3b3" d="M4,4H7l1.5,6.25L10,4h3l2,9H13L11.5,6,10,13H7L5.5,6,4,13H2"></path><path fill="none" d="M0,0L17,0 17,17 0,17z"></path></svg>