<svg xmlns="http://www.w3.org/2000/svg" viewBox="0 0 18 22" height="22" width="18"><title>mx-state-2.svg</title><g><path fill="#cccccc" d="M9,21.5l-.12,0C6,20.76.5,17.32.5,9.5V1A.5.5,0,0,1,1,.5H17a.5.5,0,0,1,.5.5V9.5a12.81,12.81,0,0,1-8.37,12Z"></path><path fill="#000000" d="M17,1V9.5A12.3,12.3,0,0,1,9,21c-1.68-.42-8-3.08-8-11.5V1H17m0-1H1A1,1,0,0,0,0,1V9.5A12.94,12.94,0,0,0,3.67,19a11.76,11.76,0,0,0,5.09,3,1,1,0,0,0,.5,0A13.21,13.21,0,0,0,18,9.49V1a1,1,0,0,0-1-1Z"></path></g><path fill="#000000" d="M0,3L18,3 18,4 0,4z"></path></svg>