<svg xmlns="http://www.w3.org/2000/svg" viewBox="0 0 28 22" height="22" width="28"><title>mx-state-4.svg</title><g><path fill="#cccccc" d="M13.92,21.49C13.38,21.41.5,19.31.5,9.5V1A.5.5,0,0,1,1,.5H27a.5.5,0,0,1,.5.5V9.5c.14,8.09-11.18,11.63-13.42,12h-.16Z"></path><path fill="#000000" d="M27,1V9.5c.13,7.58-10.4,11.08-13,11.5C11.27,20.58,1,17.92,1,9.5V1H27m0-1H1A1,1,0,0,0,0,1V9.5c0,3.91,2.06,7.23,6,9.6A23.36,23.36,0,0,0,13.85,22h.31a24,24,0,0,0,7.9-3.21C26,16.26,28.06,13,28,9.48V1a1,1,0,0,0-1-1Z"></path></g><path fill="#000000" d="M0,3L28,3 28,4 0,4z"></path></svg>