<svg xmlns="http://www.w3.org/2000/svg" viewBox="0 0 20 17" height="17" width="20"><title>osaka-subway.svg</title><path fill="#a6a3a1" opacity="0.75" d="M2,3L18,3A2,2,0,0,1,20,5L20,15A2,2,0,0,1,18,17L2,17A2,2,0,0,1,0,15L0,5A2,2,0,0,1,2,3"></path><path fill="#b3b3b3" d="M2,4L18,4A1,1,0,0,1,19,5L19,15A1,1,0,0,1,18,16L2,16A1,1,0,0,1,1,15L1,5A1,1,0,0,1,2,4"></path><path fill="none" d="M0,0L20,0 20,17 0,17z"></path><path fill="#bf3030" d="M18,8H14.58A5,5,0,0,0,5.42,8H2V9H5.1a5,5,0,0,0,0,2H2v1H5.42a5,5,0,0,0,9.16,0H18V8ZM10,5.5A4.48,4.48,0,0,1,14,8H6A4.48,4.48,0,0,1,10,5.5ZM5.5,10a4.49,4.49,0,0,1,.12-1h8.76a4.22,4.22,0,0,1,0,2H5.62A4.49,4.49,0,0,1,5.5,10ZM10,14.5A4.48,4.48,0,0,1,6,12h8A4.48,4.48,0,0,1,10,14.5ZM17,11H14.9a5,5,0,0,0,0-2H17v2Z"></path></svg>