<svg xmlns="http://www.w3.org/2000/svg" viewBox="0 0 37 19" height="19" width="37"><title>paris-metro.paris-rer.svg</title><path fill="#b3b3b3" opacity="0.75" d="M27.5,0a9.5,9.5,0,0,0-9,6.48,9.5,9.5,0,1,0,0,6A9.5,9.5,0,1,0,27.5,0Z"></path><path fill="#364699" d="M1,9.5a8.5,8.5 0 1,0 17,0a8.5,8.5 0 1,0-17,0"></path><path fill="#b3b3b3" d="M2,9.5a7.5,7.5 0 1,0 15,0a7.5,7.5 0 1,0-15,0"></path><path fill="#364699" d="M12.62,5a1.18,1.18,0,0,0-.82.3L9.5,8h0L7.2,5.3A1.18,1.18,0,0,0,6.38,5a0.78,0.78,0,0,0-.88.75V13a1,1,0,0,0,2,0V8.5L8.69,10h0a1.09,1.09,0,0,0,.81.5,1.09,1.09,0,0,0,.81-0.5h0L11.5,8.5V13a1,1,0,0,0,2,0V5.75A0.78,0.78,0,0,0,12.62,5Z"></path><path fill="#364699" d="M19,9.5a8.5,8.5 0 1,0 17,0a8.5,8.5 0 1,0-17,0"></path><path fill="#b3b3b3" d="M20,9.5a7.5,7.5 0 1,0 15,0a7.5,7.5 0 1,0-15,0"></path><path fill="#364699" d="M29.5,12.48A0.43,0.43,0,0,0,29.08,12H27V10h1.53A0.46,0.46,0,0,0,29,9.52,0.49,0.49,0,0,0,28.54,9H27V7h2.07a0.44,0.44,0,0,0,.42-0.48A0.49,0.49,0,0,0,29,6H26.46a0.45,0.45,0,0,0-.46.48v6.09a0.5,0.5,0,0,0,.56.44H29A0.5,0.5,0,0,0,29.5,12.48Z"></path><path fill="#364699" d="M25.5,8A1.81,1.81,0,0,0,24,6H22.46a0.45,0.45,0,0,0-.46.48v6.09a0.44,0.44,0,0,0,.5.44,0.47,0.47,0,0,0,.5-0.5V10h0.25l1.28,2.77a0.41,0.41,0,0,0,.39.23c0.33,0,.81-0.31.62-0.68L24.25,9.88A2.16,2.16,0,0,0,25.5,8Zm-1,0a1,1,0,0,1-1,1H23V7h0.5A1,1,0,0,1,24.5,8Z"></path><path fill="#364699" d="M33.5,8A1.81,1.81,0,0,0,32,6H30.46a0.45,0.45,0,0,0-.46.48v6.09a0.44,0.44,0,0,0,.5.44,0.47,0.47,0,0,0,.5-0.5V10h0.25l1.28,2.77a0.41,0.41,0,0,0,.39.23c0.33,0,.81-0.31.62-0.68L32.25,9.87A2.16,2.16,0,0,0,33.5,8Zm-1,0a1,1,0,0,1-1,1H31V7h0.5A1,1,0,0,1,32.5,8Z"></path></svg>