<svg xmlns="http://www.w3.org/2000/svg" viewBox="0 0 19 19" height="19" width="19"><title>paris-rer.svg</title><path fill="#b3b3b3" opacity="0.75" d="M0,9.5a9.5,9.5 0 1,0 19,0a9.5,9.5 0 1,0-19,0"></path><path fill="#364699" d="M1,9.5a8.5,8.5 0 1,0 17,0a8.5,8.5 0 1,0-17,0"></path><path fill="#b3b3b3" d="M2,9.5a7.5,7.5 0 1,0 15,0a7.5,7.5 0 1,0-15,0"></path><path fill="#364699" d="M11.5,12.48A0.43,0.43,0,0,0,11.08,12H9V10h1.53A0.46,0.46,0,0,0,11,9.52,0.49,0.49,0,0,0,10.54,9H9V7h2.07a0.44,0.44,0,0,0,.42-0.48A0.49,0.49,0,0,0,11,6H8.46A0.45,0.45,0,0,0,8,6.48v6.09a0.5,0.5,0,0,0,.56.44H11A0.5,0.5,0,0,0,11.5,12.48Z"></path><path fill="#364699" d="M7.5,8A1.81,1.81,0,0,0,6,6H4.46A0.45,0.45,0,0,0,4,6.48v6.09a0.44,0.44,0,0,0,.5.44A0.47,0.47,0,0,0,5,12.5V10H5.25l1.28,2.77a0.41,0.41,0,0,0,.39.23c0.33,0,.81-0.31.62-0.68L6.25,9.88A2.16,2.16,0,0,0,7.5,8Zm-1,0a1,1,0,0,1-1,1H5V7H5.5A1,1,0,0,1,6.5,8Z"></path><path fill="#364699" d="M15.5,8A1.81,1.81,0,0,0,14,6H12.46a0.45,0.45,0,0,0-.46.48v6.09a0.44,0.44,0,0,0,.5.44,0.47,0.47,0,0,0,.5-0.5V10h0.25l1.28,2.77a0.41,0.41,0,0,0,.39.23c0.33,0,.81-0.31.62-0.68L14.25,9.87A2.16,2.16,0,0,0,15.5,8Zm-1,0a1,1,0,0,1-1,1H13V7h0.5A1,1,0,0,1,14.5,8Z"></path><path fill="none" d="M0,0L19,0 19,19 0,19z"></path></svg>