<svg xmlns="http://www.w3.org/2000/svg" viewBox="0 0 17 17" height="17" width="17"><title>paris-transilien.svg</title><path fill="#b3b3b3" opacity="0.75" d="M2,0L15,0A2,2,0,0,1,17,2L17,15A2,2,0,0,1,15,17L2,17A2,2,0,0,1,0,15L0,2A2,2,0,0,1,2,0"></path><path fill="#364699" d="M2,1L15,1A1,1,0,0,1,16,2L16,15A1,1,0,0,1,15,16L2,16A1,1,0,0,1,1,15L1,2A1,1,0,0,1,2,1"></path><path fill="#b3b3b3" d="M2.5,2L14.5,2A0.5,0.5,0,0,1,15,2.5L15,14.5A0.5,0.5,0,0,1,14.5,15L2.5,15A0.5,0.5,0,0,1,2,14.5L2,2.5A0.5,0.5,0,0,1,2.5,2"></path><path fill="#364699" d="M12,9.5V5a1,1,0,0,0-1-1H6A1,1,0,0,0,5,5V9.5a1,1,0,0,0,1,1L4.5,13H6l1.2-2H9.7L11,13h1.5L11,10.5A1,1,0,0,0,12,9.5ZM7,9H6V8H7V9ZM6.5,7A0.47,0.47,0,0,1,6,6.5v-1A0.47,0.47,0,0,1,6.5,5h4a0.47,0.47,0,0,1,.5.5v1a0.47,0.47,0,0,1-.5.5h-4ZM10,9V8h1V9H10Z"></path><path fill="none" d="M0,0L17,0 17,17 0,17z"></path></svg>