<svg xmlns="http://www.w3.org/2000/svg" viewBox="0 0 29 22" height="22" width="29"><title>pe-regional-4.svg</title><g><path fill="#cccccc" d="M14.41,21.49C13,21.22.5,18.57.5,9.5V1A.5.5,0,0,1,1,.5H28a.5.5,0,0,1,.5.5V9.5c.11,7.62-10.94,11.4-13.9,12h-.19Z"></path><path fill="#000000" d="M28,1V9.5c.1,7.58-11.4,11.08-13.5,11.5C12.29,20.58,1,17.92,1,9.5V1H28m0-1H1A1,1,0,0,0,0,1V9.5C0,19,12.85,21.7,14.31,22l.19,0,.2,0c.14,0,14.43-3.31,14.3-12.49V1a1,1,0,0,0-1-1Z"></path></g><path fill="#000000" d="M0,3L29,3 29,4 0,4z"></path></svg>