<svg xmlns="http://www.w3.org/2000/svg" viewBox="0 0 20 20" height="20" width="20"><title>ro-communal-2.svg</title><path fill="none" d="M0,0L20,0 20,20 0,20z"></path><g><path fill="#ccb852" d="M9.81,19.46c-.05,0-5.39-2.27-7-3A3.43,3.43,0,0,1,.5,13V2.5h19V13a3.43,3.43,0,0,1-2.29,3.46c-1.62.74-7,3-7,3l-.19.08Z"></path><path fill="#000000" d="M19,3V13a3,3,0,0,1-2,3c-1.63.74-7,3-7,3s-5.37-2.26-7-3a3,3,0,0,1-2-3V3H19m1-1H0V13a4,4,0,0,0,2.59,3.91c1.63.74,6.81,2.92,7,3l.39.16.39-.16c.22-.09,5.4-2.27,7-3A4,4,0,0,0,20,13V2Z"></path></g></svg>