<svg xmlns="http://www.w3.org/2000/svg" viewBox="0 0 26 20" height="20" width="26"><title>ro-communal-3.svg</title><path fill="none" d="M0,0L26,0 26,20 0,20z"></path><g><path fill="#ccb852" d="M12.87,19.48c-.34-.09-8.43-2.28-10.08-3A3.43,3.43,0,0,1,.5,13V2.5h25V13a3.43,3.43,0,0,1-2.29,3.46c-1.65.75-9.73,2.94-10.08,3l-.13,0Z"></path><path fill="#000000" d="M25,3V13a3,3,0,0,1-2,3c-1.63.74-10,3-10,3S4.63,16.74,3,16a3,3,0,0,1-2-3V3H25m1-1H0V13a4,4,0,0,0,2.59,3.91c1.66.76,9.29,2.82,10.15,3.06L13,20l.26-.07c.86-.23,8.5-2.3,10.15-3.06A4,4,0,0,0,26,13V2Z"></path></g></svg>