<svg xmlns="http://www.w3.org/2000/svg" viewBox="0 0 17 17" height="17" width="17"><title>san-francisco-bart.svg</title><g opacity="0.75"><path fill="#b3b3b3" d="M2,0L15,0A2,2,0,0,1,17,2L17,15A2,2,0,0,1,15,17L2,17A2,2,0,0,1,0,15L0,2A2,2,0,0,1,2,0"></path></g><path fill="#b3b3b3" d="M2,1L15,1A1,1,0,0,1,16,2L16,15A1,1,0,0,1,15,16L2,16A1,1,0,0,1,1,15L1,2A1,1,0,0,1,2,1"></path><path fill="#364699" d="M13,6V6.78a3,3,0,1,0,0,4.44V12h2V6H13Zm-2,4.5A1.5,1.5,0,1,1,12.5,9,1.5,1.5,0,0,1,11,10.5Z"></path><path fill="#000000" d="M6,6a3,3,0,0,0-2,.78V4H2v8H4V11.22A3,3,0,1,0,6,6Zm0,4.5A1.5,1.5,0,1,1,7.5,9,1.5,1.5,0,0,1,6,10.5Z"></path></svg>