<svg xmlns="http://www.w3.org/2000/svg" viewBox="0 0 17 17" height="17" width="17"><title>singapore-mrt.svg</title><path fill="#b3b3b3" opacity="0.75" d="M2,0L15,0A2,2,0,0,1,17,2L17,15A2,2,0,0,1,15,17L2,17A2,2,0,0,1,0,15L0,2A2,2,0,0,1,2,0"></path><path fill="#117332" d="M2,1L15,1A1,1,0,0,1,16,2L16,15A1,1,0,0,1,15,16L2,16A1,1,0,0,1,1,15L1,2A1,1,0,0,1,2,1"></path><path fill="#b3b3b3" d="M6.5,9C5.45,9,5,8.73,5,8c0-2.16-.12-4,3.5-4S12,5.84,12,8c0,0.73-.45,1-1.5,1h-4Zm7-.5c0-2.19-.73-4.71-1.5-5.5S9.37,2,8.5,2,5.83,2.14,5,3,3.5,6.31,3.5,8.5c0,1.06,0,4.5,1,4.5H5L3.5,15H5.67L7,13h3l1.5,2h2L12,13h0.5C13.54,13,13.5,9.56,13.5,8.5ZM7,11a1,1,0,1,1-1-1A1,1,0,0,1,7,11Zm5,0a1,1,0,1,1-1-1A1,1,0,0,1,12,11Z"></path></svg>