<svg xmlns="http://www.w3.org/2000/svg" viewBox="0 0 20 38" height="38" width="20"><title>us-highway-truck-2.svg</title><path fill="#cccccc" d="M.92,0H19.08A.88.88,0,0,1,20,.86V7.14a.88.88,0,0,1-.92.86H.92A.88.88,0,0,1,0,7.14V.86A.88.88,0,0,1,.92,0Z"></path><path fill="none" d="M0,0L20,0 20,38 0,38z"></path><g><path fill="#cccccc" d="M10,27.5a.5.5,0,0,1-.38-.17A3.54,3.54,0,0,0,7,26.5a6.36,6.36,0,0,1-4.84-1.82c-2.61-2.78-1.58-5.84-.58-7.9s-.08-3.12-.87-3.89a.56.56,0,0,1-.17-.4.52.52,0,0,1,.16-.38l3-2.5A.5.5,0,0,1,4,9.5h.06a.5.5,0,0,1,.34.2A3.39,3.39,0,0,0,7,11,3.65,3.65,0,0,0,9.62,9.67.5.5,0,0,1,10,9.5h0a.5.5,0,0,1,.38.17A3.56,3.56,0,0,0,13,11a3.53,3.53,0,0,0,2.64-1.32.5.5,0,0,1,.7-.07l3,2.5a.5.5,0,0,1,0,.74c-.83.8-1.91,1.85-.9,3.93s2,5.11-.58,7.9a6.31,6.31,0,0,1-4.79,1.82c-1.19.06-2.11.16-2.7.83A.5.5,0,0,1,10,27.5Z"></path><path fill="#000000" d="M16,10l3,2.49A3.45,3.45,0,0,0,18,17c1.2,2.45,1.69,5-.5,7.33A5.87,5.87,0,0,1,13,26a4,4,0,0,0-3,1,4,4,0,0,0-3-1,5.87,5.87,0,0,1-4.5-1.67C.31,22,.81,19.45,2,17s-.23-3.75-1-4.51L4,10a3.86,3.86,0,0,0,3,1.5A4.13,4.13,0,0,0,10,10a4,4,0,0,0,3,1.5A4,4,0,0,0,16,10m0-1a1,1,0,0,0-.77.36A3,3,0,0,1,13,10.5a3.07,3.07,0,0,1-2.22-1.15,1,1,0,0,0-1.51,0A3.15,3.15,0,0,1,7,10.5,2.88,2.88,0,0,1,4.79,9.4,1,1,0,0,0,4.11,9H4a1,1,0,0,0-.64.23l-3,2.49A1,1,0,0,0,.3,13.21l0,0c.76.74,1.62,1.57.77,3.31-.62,1.26-2.49,5.1.66,8.46A6.81,6.81,0,0,0,6.9,27h.05a3.2,3.2,0,0,1,2.3.66,1,1,0,0,0,1.5,0,3.2,3.2,0,0,1,2.3-.66h.05a6.81,6.81,0,0,0,5.13-2c3.16-3.36,1.29-7.2.67-8.46-.85-1.75,0-2.58.77-3.32a1,1,0,0,0,.32-.77,1,1,0,0,0-.34-.75l-3-2.49A1,1,0,0,0,16,9Z"></path></g><g><path fill="#000000" d="M2.68,1.85V7H1.73V1.85h-1V1H3.68v.85Z"></path><path fill="#000000" d="M6.62,7,5.83,4.53H5.3V7H4.36V1H5.88a1.47,1.47,0,0,1,1.18.42A2.07,2.07,0,0,1,7.4,2.76a2.79,2.79,0,0,1-.14.95,1.11,1.11,0,0,1-.55.61L7.6,7ZM6.46,2.76a2.91,2.91,0,0,0,0-.35,1,1,0,0,0-.08-.29.45.45,0,0,0-.18-.2.57.57,0,0,0-.3-.07H5.3V3.68h.58a.58.58,0,0,0,.3-.07.45.45,0,0,0,.18-.2,1,1,0,0,0,.08-.29A2.93,2.93,0,0,0,6.46,2.76Z"></path><path fill="#000000" d="M11.29,5.51a1.68,1.68,0,0,1-.11.62,1.46,1.46,0,0,1-.3.48A1.49,1.49,0,0,1,9.77,7a1.5,1.5,0,0,1-1.12-.44,1.45,1.45,0,0,1-.3-.48,1.67,1.67,0,0,1-.11-.62V1h.94V5.56A.62.62,0,0,0,9.36,6a.59.59,0,0,0,.42.16A.58.58,0,0,0,10.19,6a.63.63,0,0,0,.17-.48V1h.94Z"></path><path fill="#000000" d="M15.22,5.39a2.33,2.33,0,0,1-.14.73,1.39,1.39,0,0,1-.35.54,1.31,1.31,0,0,1-.45.29,1.66,1.66,0,0,1-.59.09A1.48,1.48,0,0,1,13,6.9a1.54,1.54,0,0,1-.46-.37,1.34,1.34,0,0,1-.24-.39,2.48,2.48,0,0,1-.13-.52,5.83,5.83,0,0,1-.06-.7q0-.4,0-.93t0-.93a5.83,5.83,0,0,1,.06-.7,2.48,2.48,0,0,1,.13-.52,1.34,1.34,0,0,1,.24-.39A1.54,1.54,0,0,1,13,1.08a1.47,1.47,0,0,1,.7-.15,1.66,1.66,0,0,1,.6.1,1.35,1.35,0,0,1,.45.29,1.33,1.33,0,0,1,.34.53,2.42,2.42,0,0,1,.13.73h-.94a2.23,2.23,0,0,0,0-.32.68.68,0,0,0-.1-.26A.5.5,0,0,0,14,1.84a.56.56,0,0,0-.27-.06.52.52,0,0,0-.27.06.53.53,0,0,0-.17.16,1.49,1.49,0,0,0-.18.69Q13,3.17,13,4t0,1.29a1.49,1.49,0,0,0,.18.69.53.53,0,0,0,.17.16.52.52,0,0,0,.27.06A.56.56,0,0,0,14,6.14.5.5,0,0,0,14.13,6a.77.77,0,0,0,.1-.27,2.24,2.24,0,0,0,0-.32Z"></path><path fill="#000000" d="M18.37,7l-1-2.46-.45.92V7H16V1h.94V3.81L18.25,1h.95L18,3.48,19.38,7Z"></path></g></svg>