<svg xmlns="http://www.w3.org/2000/svg" viewBox="0 0 26 38" height="38" width="26"><title>us-highway-business-3.svg</title><g><path fill="#cccccc" d="M13,27.5a.5.5,0,0,1-.38-.17c-.57-.65-3.08-.78-4-.82l-.38,0c-1.6-.08-4.59-.22-6.08-1.81-2.61-2.78-1.58-5.84-.58-7.9S1.49,13.67.7,12.9a.57.57,0,0,1-.17-.4.53.53,0,0,1,.16-.39l3-2.5a.5.5,0,0,1,.68,0A6.46,6.46,0,0,0,8.5,11a6.56,6.56,0,0,0,4.14-1.35A.5.5,0,0,1,13,9.5h0a.5.5,0,0,1,.35.15A6.52,6.52,0,0,0,17.5,11a6.41,6.41,0,0,0,4.13-1.35.5.5,0,0,1,.68,0l3,2.5a.5.5,0,0,1,0,.74c-.83.8-1.91,1.85-.9,3.92s2,5.11-.58,7.9c-1.49,1.59-4.48,1.73-6.08,1.81l-.38,0c-.95,0-3.46.17-4,.82A.5.5,0,0,1,13,27.5Z"></path><path fill="#000000" d="M22,10l3,2.5c-.78.76-2.19,2.06-1,4.5s1.69,5-.5,7.33c-1.44,1.53-4.57,1.59-6,1.67-1.16.06-3.76.16-4.5,1-.74-.84-3.34-.94-4.5-1-1.43-.07-4.56-.14-6-1.67C.31,22,.81,19.45,2,17s-.23-3.74-1-4.5L4,10a6.94,6.94,0,0,0,4.5,1.5A7,7,0,0,0,13,10a7,7,0,0,0,4.5,1.5A6.84,6.84,0,0,0,22,10m0-1a1,1,0,0,0-.72.3,6,6,0,0,1-3.77,1.2,6.1,6.1,0,0,1-3.79-1.21A1,1,0,0,0,13,9h0a1,1,0,0,0-.71.3A6.11,6.11,0,0,1,8.5,10.5,6,6,0,0,1,4.71,9.3a1,1,0,0,0-1.35-.07l-3,2.5A1,1,0,0,0,.3,13.22l0,0c.76.73,1.61,1.56.76,3.3C0,18.75-1.05,22,1.77,25c1.63,1.74,4.75,1.89,6.42,2h.37c2.82.14,3.52.47,3.68.66A1,1,0,0,0,13,28h0a1,1,0,0,0,.75-.34c.16-.18.86-.51,3.68-.66h.37c1.67-.08,4.79-.23,6.42-2,2.83-3,1.74-6.27.67-8.46-.85-1.75,0-2.57.76-3.3l0,0a1,1,0,0,0-.06-1.49l-3-2.5A1,1,0,0,0,22,9Z"></path></g><path fill="none" d="M0,9L26,9 26,29 0,29z"></path><path fill="none" d="M0,0L26,0 26,38 0,38z"></path><path fill="#cccccc" d="M3.92,0H22.08A.88.88,0,0,1,23,.86V7.14a.88.88,0,0,1-.92.86H3.92A.88.88,0,0,1,3,7.14V.86A.88.88,0,0,1,3.92,0Z"></path><g><path fill="#000000" d="M8.51,3.92l.27.16L9,4.23a1.32,1.32,0,0,1,.28.46,1.72,1.72,0,0,1,.09.57A1.89,1.89,0,0,1,9.21,6a1.47,1.47,0,0,1-.37.54,1.67,1.67,0,0,1-.58.34A2.25,2.25,0,0,1,7.5,7H5V1H7.4a2.36,2.36,0,0,1,.76.12,1.69,1.69,0,0,1,.58.33A1.46,1.46,0,0,1,9.12,2a1.71,1.71,0,0,1,.13.68A1.36,1.36,0,0,1,8.51,3.92Zm-1.2-.5a.82.82,0,0,0,.57-.18.64.64,0,0,0,.21-.5.64.64,0,0,0-.21-.5A.82.82,0,0,0,7.31,2H6.17V3.42Zm.08,2.52A.8.8,0,0,0,8,5.74a.71.71,0,0,0,.21-.54A.69.69,0,0,0,8,4.66a.81.81,0,0,0-.57-.19H6.17V5.94Z"></path><path fill="#000000" d="M14.65,4.93a2.1,2.1,0,0,1-.17.87,2,2,0,0,1-.47.66,2.15,2.15,0,0,1-.7.42,2.52,2.52,0,0,1-1.72,0,2.15,2.15,0,0,1-.7-.42,2,2,0,0,1-.47-.66,2.1,2.1,0,0,1-.17-.87V1h1.17V4.89a1.13,1.13,0,0,0,.28.81,1,1,0,0,0,.76.29,1,1,0,0,0,.76-.29,1.12,1.12,0,0,0,.28-.81V1h1.16Z"></path><path fill="#000000" d="M19.65,5.22a1.7,1.7,0,0,1-.17.77,1.63,1.63,0,0,1-.47.57,2.13,2.13,0,0,1-.71.35,3.05,3.05,0,0,1-.88.12,4,4,0,0,1-1.21-.17,2.38,2.38,0,0,1-1-.62L16,5.49a1.52,1.52,0,0,0,.66.39,2.73,2.73,0,0,0,.78.11,1.36,1.36,0,0,0,.8-.19.64.64,0,0,0,.27-.55.67.67,0,0,0-.19-.5.65.65,0,0,0-.2-.13,1.76,1.76,0,0,0-.34-.08l-.71-.11a2.66,2.66,0,0,1-.68-.18,1.63,1.63,0,0,1-.48-.32,1.55,1.55,0,0,1-.43-1.18A1.84,1.84,0,0,1,15.62,2,1.6,1.6,0,0,1,16,1.46a1.91,1.91,0,0,1,.66-.37,2.64,2.64,0,0,1,.87-.13,3.32,3.32,0,0,1,1.08.16,2.27,2.27,0,0,1,.85.54l-.74.73a1.25,1.25,0,0,0-.6-.34A3,3,0,0,0,17.53,2a1,1,0,0,0-.69.22.73.73,0,0,0-.22.53.69.69,0,0,0,0,.23.53.53,0,0,0,.13.2.85.85,0,0,0,.22.14,1.15,1.15,0,0,0,.32.08l.71.11a3,3,0,0,1,.68.17,1.39,1.39,0,0,1,.46.3,1.25,1.25,0,0,1,.35.54A2.23,2.23,0,0,1,19.65,5.22Z"></path><path fill="#000000" d="M20.25,7V5.74H21.5V7Z"></path></g></svg>