<svg xmlns="http://www.w3.org/2000/svg" viewBox="0 0 26 38" height="38" width="26"><title>us-highway-bypass-3.svg</title><g><path fill="#cccccc" d="M13,27.5a.5.5,0,0,1-.38-.17c-.57-.65-3.08-.78-4-.82l-.38,0c-1.6-.08-4.59-.22-6.08-1.81-2.61-2.78-1.58-5.84-.58-7.9S1.49,13.67.7,12.9a.57.57,0,0,1-.17-.4.53.53,0,0,1,.16-.39l3-2.5a.5.5,0,0,1,.68,0A6.46,6.46,0,0,0,8.5,11a6.56,6.56,0,0,0,4.14-1.35A.5.5,0,0,1,13,9.5h0a.5.5,0,0,1,.35.15A6.52,6.52,0,0,0,17.5,11a6.41,6.41,0,0,0,4.13-1.35.5.5,0,0,1,.68,0l3,2.5a.5.5,0,0,1,0,.74c-.83.8-1.91,1.85-.9,3.92s2,5.11-.58,7.9c-1.49,1.59-4.48,1.73-6.08,1.81l-.38,0c-.95,0-3.46.17-4,.82A.5.5,0,0,1,13,27.5Z"></path><path fill="#000000" d="M22,10l3,2.5c-.78.76-2.19,2.06-1,4.5s1.69,5-.5,7.33c-1.44,1.53-4.57,1.59-6,1.67-1.16.06-3.76.16-4.5,1-.74-.84-3.34-.94-4.5-1-1.43-.07-4.56-.14-6-1.67C.31,22,.81,19.45,2,17s-.23-3.74-1-4.5L4,10a6.94,6.94,0,0,0,4.5,1.5A7,7,0,0,0,13,10a7,7,0,0,0,4.5,1.5A6.84,6.84,0,0,0,22,10m0-1a1,1,0,0,0-.72.3,6,6,0,0,1-3.77,1.2,6.1,6.1,0,0,1-3.79-1.21A1,1,0,0,0,13,9h0a1,1,0,0,0-.71.3A6.11,6.11,0,0,1,8.5,10.5,6,6,0,0,1,4.72,9.3a1,1,0,0,0-1.35-.07l-3,2.5a1,1,0,0,0-.06,1.49l0,0c.76.73,1.61,1.56.76,3.3C0,18.75-1.05,22,1.78,25c1.63,1.74,4.75,1.89,6.42,2h.37c2.82.14,3.52.47,3.68.66A1,1,0,0,0,13,28h0a1,1,0,0,0,.75-.34c.16-.18.86-.51,3.68-.66h.37c1.67-.08,4.79-.23,6.42-2,2.83-3,1.74-6.27.67-8.46-.85-1.75,0-2.57.76-3.3l0,0a1,1,0,0,0-.06-1.49l-3-2.5A1,1,0,0,0,22,9Z"></path></g><path fill="none" d="M0,9L26,9 26,29 0,29z"></path><path fill="none" d="M0,0L26,0 26,38 0,38z"></path><path fill="#cccccc" d="M.92,0H25.08A.88.88,0,0,1,26,.86V7.14a.88.88,0,0,1-.92.86H.92A.88.88,0,0,1,0,7.14V.86A.88.88,0,0,1,.92,0Z"></path><g><path fill="#000000" d="M5.05,5.27A3.15,3.15,0,0,1,5,6.1a1.17,1.17,0,0,1-.3.51,1.18,1.18,0,0,1-.47.29A2.27,2.27,0,0,1,3.49,7H2V1H3.5a2.34,2.34,0,0,1,.7.09,1.08,1.08,0,0,1,.46.28A1.17,1.17,0,0,1,5,1.85,2.62,2.62,0,0,1,5,2.6,2.22,2.22,0,0,1,5,3.17a1.08,1.08,0,0,1-.28.47l-.14.12-.17.09a1.11,1.11,0,0,1,.33.22,1.08,1.08,0,0,1,.28.5A3.08,3.08,0,0,1,5.05,5.27Zm-1-2.61A1,1,0,0,0,3.94,2a.66.66,0,0,0-.53-.18H2.94V3.48h.47a.64.64,0,0,0,.53-.19A1,1,0,0,0,4.09,2.66Zm0,2.55a1.19,1.19,0,0,0-.17-.72.65.65,0,0,0-.55-.21H2.94V6.14H3.4a.67.67,0,0,0,.55-.21A1.18,1.18,0,0,0,4.11,5.21Z"></path><path fill="#000000" d="M7.4,4.64V7H6.46V4.64L5.3,1h1l.59,2.37L7.52,1h1Z"></path><path fill="#000000" d="M8.2,5V4.14H9.9V5Z"></path><path fill="#000000" d="M13.41,2.83A2.15,2.15,0,0,1,13,4.21a1.44,1.44,0,0,1-1.18.44h-.56V7h-.94V1h1.5A1.44,1.44,0,0,1,13,1.45,2.17,2.17,0,0,1,13.41,2.83Zm-.94,0a1.67,1.67,0,0,0-.13-.71.5.5,0,0,0-.5-.26h-.53V3.79h.53a.51.51,0,0,0,.5-.26A1.64,1.64,0,0,0,12.47,2.83Z"></path><path fill="#000000" d="M16.2,7,16,5.8H14.57L14.33,7h-1l1.47-6h.92l1.45,6Zm-.93-4.54L14.75,5h1Z"></path><path fill="#000000" d="M20.67,5.33a3.27,3.27,0,0,1-.08.78,1.1,1.1,0,0,1-.31.54,1.39,1.39,0,0,1-.47.29,2,2,0,0,1-.69.11A1.57,1.57,0,0,1,18,6.65a1.17,1.17,0,0,1-.3-.51,2.88,2.88,0,0,1-.08-.77h.94a1.94,1.94,0,0,0,0,.4.6.6,0,0,0,.13.27.55.55,0,0,0,.17.11.65.65,0,0,0,.26,0A.57.57,0,0,0,19.57,6a.6.6,0,0,0,.13-.26,2,2,0,0,0,0-.4,3.08,3.08,0,0,0,0-.39.68.68,0,0,0-.08-.26.59.59,0,0,0-.17-.18,1.35,1.35,0,0,0-.29-.14l-.71-.29a1.8,1.8,0,0,1-.39-.21.91.91,0,0,1-.26-.29,1.36,1.36,0,0,1-.14-.42,3.21,3.21,0,0,1,0-.59,2,2,0,0,1,.12-.73,1.35,1.35,0,0,1,.37-.54,1.49,1.49,0,0,1,.45-.26,1.62,1.62,0,0,1,.58-.1,1.5,1.5,0,0,1,1.08.36,1.21,1.21,0,0,1,.33.55,2.74,2.74,0,0,1,.09.75h-.94a2.35,2.35,0,0,0,0-.36A.59.59,0,0,0,19.54,2a.49.49,0,0,0-.42-.18.56.56,0,0,0-.24,0,.51.51,0,0,0-.16.12.89.89,0,0,0-.16.59,2.41,2.41,0,0,0,0,.31.54.54,0,0,0,.07.21.53.53,0,0,0,.15.16,1.14,1.14,0,0,0,.26.13l.71.29a2,2,0,0,1,.45.24,1,1,0,0,1,.28.33,1.5,1.5,0,0,1,.14.46A4.3,4.3,0,0,1,20.67,5.33Z"></path><path fill="#000000" d="M24.38,5.33a3.27,3.27,0,0,1-.08.78,1.1,1.1,0,0,1-.31.54,1.39,1.39,0,0,1-.47.29,2,2,0,0,1-.69.11,1.57,1.57,0,0,1-1.16-.39,1.17,1.17,0,0,1-.3-.51,2.88,2.88,0,0,1-.08-.77h.94a1.94,1.94,0,0,0,0,.4.6.6,0,0,0,.13.27.55.55,0,0,0,.17.11.65.65,0,0,0,.26,0A.57.57,0,0,0,23.28,6a.6.6,0,0,0,.13-.26,2,2,0,0,0,0-.4,3.08,3.08,0,0,0,0-.39.68.68,0,0,0-.08-.26.59.59,0,0,0-.17-.18,1.35,1.35,0,0,0-.29-.14l-.71-.29a1.8,1.8,0,0,1-.39-.21.91.91,0,0,1-.26-.29,1.36,1.36,0,0,1-.14-.42,3.21,3.21,0,0,1,0-.59,2,2,0,0,1,.12-.73,1.35,1.35,0,0,1,.37-.54,1.49,1.49,0,0,1,.45-.26,1.62,1.62,0,0,1,.58-.1,1.5,1.5,0,0,1,1.08.36,1.21,1.21,0,0,1,.33.55,2.74,2.74,0,0,1,.09.75H23.4a2.35,2.35,0,0,0,0-.36A.59.59,0,0,0,23.26,2a.49.49,0,0,0-.42-.18.56.56,0,0,0-.24,0,.51.51,0,0,0-.16.12.89.89,0,0,0-.16.59,2.41,2.41,0,0,0,0,.31.54.54,0,0,0,.07.21.53.53,0,0,0,.15.16,1.14,1.14,0,0,0,.26.13l.71.29a2,2,0,0,1,.45.24,1,1,0,0,1,.28.33,1.5,1.5,0,0,1,.14.46A4.3,4.3,0,0,1,24.38,5.33Z"></path></g></svg>