<svg xmlns="http://www.w3.org/2000/svg" viewBox="0 0 20 38" height="38" width="20"><title>us-highway-business-2.svg</title><path fill="#cccccc" d="M.92,0H19.08A.88.88,0,0,1,20,.86V7.14a.88.88,0,0,1-.92.86H.92A.88.88,0,0,1,0,7.14V.86A.88.88,0,0,1,.92,0Z"></path><path fill="none" d="M0,0L20,0 20,38 0,38z"></path><g><path fill="#cccccc" d="M10,27.5a.5.5,0,0,1-.38-.17A3.54,3.54,0,0,0,7,26.5a6.36,6.36,0,0,1-4.84-1.82c-2.61-2.78-1.58-5.84-.58-7.9s-.08-3.12-.87-3.89a.56.56,0,0,1-.17-.4.52.52,0,0,1,.16-.38l3-2.5A.5.5,0,0,1,4,9.5h.06a.5.5,0,0,1,.34.2A3.39,3.39,0,0,0,7,11,3.65,3.65,0,0,0,9.62,9.67.5.5,0,0,1,10,9.5h0a.5.5,0,0,1,.38.17A3.56,3.56,0,0,0,13,11a3.53,3.53,0,0,0,2.64-1.32.5.5,0,0,1,.7-.07l3,2.5a.5.5,0,0,1,0,.74c-.83.8-1.91,1.85-.9,3.93s2,5.11-.58,7.9a6.31,6.31,0,0,1-4.79,1.82c-1.19.06-2.11.16-2.7.83A.5.5,0,0,1,10,27.5Z"></path><path fill="#000000" d="M16,10l3,2.49A3.45,3.45,0,0,0,18,17c1.2,2.45,1.69,5-.5,7.33A5.87,5.87,0,0,1,13,26a4,4,0,0,0-3,1,4,4,0,0,0-3-1,5.87,5.87,0,0,1-4.5-1.67C.31,22,.81,19.45,2,17s-.23-3.75-1-4.51L4,10a3.86,3.86,0,0,0,3,1.5A4.13,4.13,0,0,0,10,10a4,4,0,0,0,3,1.5A4,4,0,0,0,16,10m0-1a1,1,0,0,0-.77.36A3,3,0,0,1,13,10.5a3.07,3.07,0,0,1-2.22-1.15,1,1,0,0,0-1.51,0A3.15,3.15,0,0,1,7,10.5,2.88,2.88,0,0,1,4.79,9.4,1,1,0,0,0,4.11,9H4a1,1,0,0,0-.64.23l-3,2.49A1,1,0,0,0,.3,13.21l0,0c.76.74,1.62,1.57.77,3.31-.62,1.26-2.49,5.1.66,8.46A6.81,6.81,0,0,0,6.9,27h.05a3.2,3.2,0,0,1,2.3.66,1,1,0,0,0,1.5,0,3.2,3.2,0,0,1,2.3-.66h.05a6.81,6.81,0,0,0,5.13-2c3.16-3.36,1.29-7.2.67-8.46-.85-1.75,0-2.58.77-3.32a1,1,0,0,0,.32-.77,1,1,0,0,0-.34-.75l-3-2.49A1,1,0,0,0,16,9Z"></path></g><g><path fill="#000000" d="M5.51,3.92l.27.16L6,4.23a1.32,1.32,0,0,1,.28.46,1.72,1.72,0,0,1,.09.57A1.89,1.89,0,0,1,6.21,6a1.47,1.47,0,0,1-.37.54,1.67,1.67,0,0,1-.58.34A2.25,2.25,0,0,1,4.5,7H2V1H4.4a2.36,2.36,0,0,1,.76.12,1.69,1.69,0,0,1,.58.33A1.46,1.46,0,0,1,6.12,2a1.71,1.71,0,0,1,.13.68A1.36,1.36,0,0,1,5.51,3.92Zm-1.2-.5a.82.82,0,0,0,.57-.18.64.64,0,0,0,.21-.5.64.64,0,0,0-.21-.5A.82.82,0,0,0,4.31,2H3.17V3.42Zm.08,2.52A.8.8,0,0,0,5,5.74a.71.71,0,0,0,.21-.54A.69.69,0,0,0,5,4.66a.81.81,0,0,0-.57-.19H3.17V5.94Z"></path><path fill="#000000" d="M11.65,4.93a2.1,2.1,0,0,1-.17.87,2,2,0,0,1-.47.66,2.15,2.15,0,0,1-.7.42,2.52,2.52,0,0,1-1.72,0,2.15,2.15,0,0,1-.7-.42,2,2,0,0,1-.47-.66,2.1,2.1,0,0,1-.17-.87V1H8.42V4.89a1.13,1.13,0,0,0,.28.81A1,1,0,0,0,9.45,6a1,1,0,0,0,.76-.29,1.12,1.12,0,0,0,.28-.81V1h1.16Z"></path><path fill="#000000" d="M16.65,5.22a1.7,1.7,0,0,1-.17.77,1.63,1.63,0,0,1-.47.57,2.13,2.13,0,0,1-.71.35,3.05,3.05,0,0,1-.88.12,4,4,0,0,1-1.21-.17,2.38,2.38,0,0,1-1-.62L13,5.49a1.52,1.52,0,0,0,.66.39,2.73,2.73,0,0,0,.78.11,1.36,1.36,0,0,0,.8-.19.64.64,0,0,0,.27-.55.67.67,0,0,0-.19-.5.65.65,0,0,0-.2-.13,1.76,1.76,0,0,0-.34-.08l-.71-.11a2.66,2.66,0,0,1-.68-.18,1.63,1.63,0,0,1-.48-.32,1.55,1.55,0,0,1-.43-1.18A1.84,1.84,0,0,1,12.62,2,1.6,1.6,0,0,1,13,1.46a1.91,1.91,0,0,1,.66-.37,2.64,2.64,0,0,1,.87-.13,3.32,3.32,0,0,1,1.08.16,2.27,2.27,0,0,1,.85.54l-.74.73a1.25,1.25,0,0,0-.6-.34A3,3,0,0,0,14.53,2a1,1,0,0,0-.69.22.73.73,0,0,0-.22.53.69.69,0,0,0,0,.23.53.53,0,0,0,.13.2.85.85,0,0,0,.22.14,1.15,1.15,0,0,0,.32.08l.71.11a3,3,0,0,1,.68.17,1.39,1.39,0,0,1,.46.3,1.25,1.25,0,0,1,.35.54A2.23,2.23,0,0,1,16.65,5.22Z"></path><path fill="#000000" d="M17.25,7V5.74H18.5V7Z"></path></g></svg>