<svg xmlns="http://www.w3.org/2000/svg" viewBox="0 0 20 38" height="38" width="20"><title>us-highway-alternate-2.svg</title><path fill="#cccccc" d="M.92,0H19.08A.88.88,0,0,1,20,.86V7.14a.88.88,0,0,1-.92.86H.92A.88.88,0,0,1,0,7.14V.86A.88.88,0,0,1,.92,0Z"></path><g><path fill="#000000" d="M6.47,7,6.12,5.94H4L3.63,7H2.41L4.59,1H5.5L7.69,7ZM5.08,2.77,4.32,5H5.81Z"></path><path fill="#000000" d="M8.43,7V1H9.6V6h2.71V7Z"></path><path fill="#000000" d="M14.87,2V7H13.7V2H12.14V1h4.29V2Z"></path><path fill="#000000" d="M16.25,7V5.75H17.5V7Z"></path></g><path fill="none" d="M0,0L20,0 20,38 0,38z"></path><g><path fill="#cccccc" d="M10,27.5a.5.5,0,0,1-.38-.17A3.54,3.54,0,0,0,7,26.5a6.36,6.36,0,0,1-4.84-1.82c-2.61-2.78-1.58-5.84-.58-7.9s-.08-3.12-.87-3.89a.56.56,0,0,1-.17-.4.52.52,0,0,1,.16-.38l3-2.5A.5.5,0,0,1,4,9.5h.06a.5.5,0,0,1,.34.2A3.39,3.39,0,0,0,7,11,3.65,3.65,0,0,0,9.62,9.67.5.5,0,0,1,10,9.5h0a.5.5,0,0,1,.38.17A3.56,3.56,0,0,0,13,11a3.53,3.53,0,0,0,2.64-1.32.5.5,0,0,1,.7-.07l3,2.5a.5.5,0,0,1,0,.74c-.83.8-1.91,1.85-.9,3.93s2,5.11-.58,7.9a6.31,6.31,0,0,1-4.79,1.82c-1.19.06-2.11.16-2.7.83A.5.5,0,0,1,10,27.5Z"></path><path fill="#000000" d="M16,10l3,2.49A3.45,3.45,0,0,0,18,17c1.2,2.45,1.69,5-.5,7.33A5.87,5.87,0,0,1,13,26a4,4,0,0,0-3,1,4,4,0,0,0-3-1,5.87,5.87,0,0,1-4.5-1.67C.31,22,.81,19.45,2,17s-.23-3.75-1-4.51L4,10a3.86,3.86,0,0,0,3,1.5A4.13,4.13,0,0,0,10,10a4,4,0,0,0,3,1.5A4,4,0,0,0,16,10m0-1a1,1,0,0,0-.77.36A3,3,0,0,1,13,10.5a3.07,3.07,0,0,1-2.22-1.15,1,1,0,0,0-1.51,0A3.15,3.15,0,0,1,7,10.5,2.88,2.88,0,0,1,4.79,9.4,1,1,0,0,0,4.11,9H4a1,1,0,0,0-.64.23l-3,2.49A1,1,0,0,0,.3,13.21l0,0c.76.74,1.62,1.57.77,3.31-.62,1.26-2.49,5.1.66,8.46A6.81,6.81,0,0,0,6.9,27h.05a3.2,3.2,0,0,1,2.3.66,1,1,0,0,0,1.5,0,3.2,3.2,0,0,1,2.3-.66h.05a6.81,6.81,0,0,0,5.13-2c3.16-3.36,1.29-7.2.67-8.46-.85-1.75,0-2.58.77-3.32a1,1,0,0,0,.32-.77,1,1,0,0,0-.34-.75l-3-2.49A1,1,0,0,0,16,9Z"></path></g></svg>