<svg xmlns="http://www.w3.org/2000/svg" viewBox="0 0 20 40" height="40" width="20"><title>us-interstate-truck-2.svg</title><path fill="#a6a6a6" d="M.92,0H19.08A.88.88,0,0,1,20,.86V7.14a.88.88,0,0,1-.92.86H.92A.88.88,0,0,1,0,7.14V.86A.88.88,0,0,1,.92,0Z"></path><path fill="#cccccc" d="M17,10a7.74,7.74,0,0,1,2,4v2c0,9.28-9,12-9,12S1,25.37,1,16V14a7.41,7.41,0,0,1,2-4,4.07,4.07,0,0,0,3.56,2A4,4,0,0,0,10,10a4,4,0,0,0,3.46,2A4.08,4.08,0,0,0,17,10m0-1h-.15a1,1,0,0,0-.74.52A3.07,3.07,0,0,1,13.46,11a2.94,2.94,0,0,1-2.57-1.46A1,1,0,0,0,10,9h0a1,1,0,0,0-.89.55A3,3,0,0,1,6.53,11,3.07,3.07,0,0,1,3.85,9.53,1,1,0,0,0,3.12,9H3a1,1,0,0,0-.7.28A8.3,8.3,0,0,0,0,14v2C0,26,9.62,28.93,9.72,29a1,1,0,0,0,.57,0c.1,0,9.71-3,9.71-12.93V14a8.56,8.56,0,0,0-2.29-4.7A1,1,0,0,0,17,9Z"></path><path fill="#293473" d="M1,16c0,9.34,9,12,9,12s9-2.69,9-12V15H1Z"></path><path fill="#991f1f" d="M1,14a7.41,7.41,0,0,1,2-4,4.07,4.07,0,0,0,3.56,2A4,4,0,0,0,10,10a4,4,0,0,0,3.46,2A4.08,4.08,0,0,0,17,10a7.74,7.74,0,0,1,2,4Z"></path><path fill="#cccccc" d="M1,14L19,14 19,15 1,15z"></path><path fill="none" d="M0,0L20,0 20,40 0,40z"></path><g><path fill="#000000" d="M2.68,1.85V7H1.73V1.85h-1V1H3.68v.85Z"></path><path fill="#000000" d="M6.62,7,5.83,4.53H5.3V7H4.36V1H5.88a1.47,1.47,0,0,1,1.18.42A2.07,2.07,0,0,1,7.4,2.76a2.79,2.79,0,0,1-.14.95,1.11,1.11,0,0,1-.55.61L7.6,7ZM6.46,2.76a2.91,2.91,0,0,0,0-.35,1,1,0,0,0-.08-.29.45.45,0,0,0-.18-.2.57.57,0,0,0-.3-.07H5.3V3.68h.58a.58.58,0,0,0,.3-.07.45.45,0,0,0,.18-.2,1,1,0,0,0,.08-.29A2.93,2.93,0,0,0,6.46,2.76Z"></path><path fill="#000000" d="M11.29,5.51a1.68,1.68,0,0,1-.11.62,1.46,1.46,0,0,1-.3.48A1.49,1.49,0,0,1,9.77,7a1.5,1.5,0,0,1-1.12-.44,1.45,1.45,0,0,1-.3-.48,1.67,1.67,0,0,1-.11-.62V1h.94V5.56A.62.62,0,0,0,9.36,6a.59.59,0,0,0,.42.16A.58.58,0,0,0,10.19,6a.63.63,0,0,0,.17-.48V1h.94Z"></path><path fill="#000000" d="M15.22,5.39a2.33,2.33,0,0,1-.14.73,1.39,1.39,0,0,1-.35.54,1.31,1.31,0,0,1-.45.29,1.66,1.66,0,0,1-.59.09A1.48,1.48,0,0,1,13,6.9a1.54,1.54,0,0,1-.46-.37,1.34,1.34,0,0,1-.24-.39,2.48,2.48,0,0,1-.13-.52,5.83,5.83,0,0,1-.06-.7q0-.4,0-.93t0-.93a5.83,5.83,0,0,1,.06-.7,2.48,2.48,0,0,1,.13-.52,1.34,1.34,0,0,1,.24-.39A1.54,1.54,0,0,1,13,1.08a1.47,1.47,0,0,1,.7-.15,1.66,1.66,0,0,1,.6.1,1.35,1.35,0,0,1,.45.29,1.33,1.33,0,0,1,.34.53,2.42,2.42,0,0,1,.13.73h-.94a2.23,2.23,0,0,0,0-.32.68.68,0,0,0-.1-.26A.5.5,0,0,0,14,1.84a.56.56,0,0,0-.27-.06.52.52,0,0,0-.27.06.53.53,0,0,0-.17.16,1.49,1.49,0,0,0-.18.69Q13,3.17,13,4t0,1.29a1.49,1.49,0,0,0,.18.69.53.53,0,0,0,.17.16.52.52,0,0,0,.27.06A.56.56,0,0,0,14,6.14.5.5,0,0,0,14.13,6a.77.77,0,0,0,.1-.27,2.24,2.24,0,0,0,0-.32Z"></path><path fill="#000000" d="M18.37,7l-1-2.46-.45.92V7H16V1h.94V3.81L18.25,1h.95L18,3.48,19.38,7Z"></path></g></svg>