<svg xmlns="http://www.w3.org/2000/svg" viewBox="0 0 38 22" height="22" width="38"><title>us-interstate-duplex-5.svg</title><path fill="#a6a6a6" d="M35,1a5.15,5.15,0,0,1,2,4s0,1.5,0,2c0,9.26-18,12-18,12S1,16.32,1,7V5A5.39,5.39,0,0,1,3,1s2.5,2,8,2c6.5,0,8-2,8-2s1.5,2,8,2c5.53,0,8-2,8-2M19,0A1,1,0,0,0,18.2.4h0S16.71,2,11,2C6,2,3.64.23,3.62.21A1,1,0,0,0,3,0a1,1,0,0,0-.58.18A6.37,6.37,0,0,0,0,5V7C0,17.06,18.08,19.84,18.85,20h.29C19.92,19.84,38,17,38,7c0-1.14,0-1.7,0-2h0A6.16,6.16,0,0,0,35.58.19a1,1,0,0,0-1.2,0S32,2,27,2C21.27,2,19.79.39,19.78.37A1,1,0,0,0,19,0Z"></path><path fill="#293473" d="M1,7c0,9.32,18,12,18,12S37,16.25,37,7V6H1Z"></path><path fill="#991f1f" d="M1,5A5.39,5.39,0,0,1,3,1s2.5,2,8,2c6.5,0,8-2,8-2s1.5,2,8,2c5.53,0,8-2,8-2a5.43,5.43,0,0,1,2,4Z"></path><path fill="#a6a6a6" d="M1,5L37,5 37,6 1,6z"></path><path fill="none" d="M0,0L38,0 38,22 0,22z"></path></svg>